<?xml version="1.0" standalone="no"?>
<!DOCTYPE svg PUBLIC "-//W3C//DTD SVG 20010904//EN"
 "http://www.w3.org/TR/2001/REC-SVG-20010904/DTD/svg10.dtd">
<svg version="1.0" xmlns="http://www.w3.org/2000/svg"
 width="700.000000pt" height="700.000000pt" viewBox="0 0 700.000000 700.000000"
 preserveAspectRatio="xMidYMid meet">
<metadata>
Created by potrace 1.11, written by Peter Selinger 2001-2013
</metadata>
<g transform="translate(0.000000,700.000000) scale(0.100000,-0.100000)"
fill="#000000" stroke="none">
<path d="M0 3500 l0 -3500 3500 0 3500 0 0 3500 0 3500 -3500 0 -3500 0 0
-3500z m6765 0 l0 -3265 -3265 0 -3265 0 -1 3260 c0 1793 0 3262 2 3266 1 3
1471 5 3266 5 l3263 -1 0 -3265z"/>
<path d="M3465 6174 c-22 -7 -41 -14 -42 -14 0 0 -10 -15 -20 -32 -26 -45 -26
-201 0 -241 49 -76 168 -66 201 16 12 28 14 100 7 187 -2 35 -29 67 -71 84
-30 12 -41 12 -75 0z"/>
<path d="M966 6071 c-54 -36 -70 -95 -42 -149 22 -42 119 -132 152 -141 65
-17 139 29 144 90 5 57 -2 73 -57 131 -87 91 -137 108 -197 69z"/>
<path d="M5905 6056 c-48 -21 -142 -127 -150 -169 -17 -87 81 -165 158 -126
46 23 137 124 148 161 24 91 -69 172 -156 134z"/>
<path d="M3450 5240 c-14 -6 -35 -25 -45 -43 -19 -31 -20 -55 -21 -636 0 -515
-2 -606 -15 -612 -8 -4 -40 -19 -72 -33 -100 -44 -200 -159 -240 -278 -8 -22
37 -20 -460 -20 -400 -1 -409 -2 -440 -22 -66 -45 -74 -124 -18 -180 l31 -31
433 -1 c238 0 438 -3 444 -7 6 -4 14 -19 18 -34 21 -86 129 -209 226 -259 178
-90 394 -54 537 87 176 176 183 455 15 643 -39 44 -147 115 -186 123 -15 3
-30 10 -34 16 -4 6 -7 284 -7 619 l-1 608 -31 31 c-34 34 -90 46 -134 29z
m160 -1535 c63 -33 116 -114 121 -185 9 -140 -93 -250 -231 -250 -129 0 -233
103 -232 231 2 174 186 284 342 204z"/>
<path d="M905 3612 c-44 -15 -71 -43 -85 -90 -10 -37 17 -99 52 -122 29 -18
182 -22 223 -5 81 32 92 154 19 201 -26 18 -170 28 -209 16z"/>
<path d="M5910 3607 c-89 -31 -101 -163 -18 -209 33 -17 186 -19 223 -2 56 26
84 105 56 157 -25 45 -58 59 -145 63 -45 1 -96 -3 -116 -9z"/>
<path d="M1104 1257 c-30 -15 -124 -109 -140 -139 -43 -83 31 -181 124 -163
34 6 114 72 152 126 55 77 12 174 -82 183 -19 2 -43 -1 -54 -7z"/>
<path d="M5800 1252 c-21 -10 -42 -32 -53 -54 -28 -57 -12 -99 67 -177 61 -61
68 -65 113 -65 33 -1 57 5 75 19 33 23 54 82 44 120 -7 27 -105 139 -137 156
-34 18 -75 18 -109 1z"/>
<path d="M3448 1152 c-51 -26 -66 -67 -63 -171 2 -64 7 -95 20 -115 45 -68
162 -58 198 16 20 42 16 198 -6 231 -32 50 -94 66 -149 39z"/>
</g>
</svg>
